<svg xmlns="http://www.w3.org/2000/svg" version="1.1" xmlns:xlink="http://www.w3.org/1999/xlink" width="1000" height="1000"><style>
    #light-icon {
      display: inline;
    }
    #dark-icon {
      display: none;
    }

    @media (prefers-color-scheme: dark) {
      #light-icon {
        display: none;
      }
      #dark-icon {
        display: inline;
      }
    }
  </style><g id="light-icon"><svg xmlns="http://www.w3.org/2000/svg" version="1.1" xmlns:xlink="http://www.w3.org/1999/xlink" width="1000" height="1000"><g><g transform="matrix(8.830022286975721,0,0,8.830022286975721,6.622504715231571,5.684341886080802e-14)"><svg xmlns="http://www.w3.org/2000/svg" version="1.1" xmlns:xlink="http://www.w3.org/1999/xlink" width="111.75" height="113.24999728200001"><svg version="1.2" preserveAspectRatio="xMidYMid meet" viewBox="131.49974999999998 131.499746844006 111.75 113.24999728200001" zoomAndPan="magnify" xmlns:xlink="http://www.w3.org/1999/xlink" xmlns="http://www.w3.org/2000/svg" style="max-height: 500px" width="111.75" height="113.24999728200001"><g id="2fe4d6d2a5"><path d="M 196.882812 235.660156 L 193.894531 238.644531 C 190.375 242.164062 184.613281 242.164062 181.09375 238.644531 L 136.347656 193.898438 C 132.828125 190.382812 132.828125 184.621094 136.347656 181.101562 L 163.761719 153.6875 L 163.761719 208.015625 L 178.039062 222.1875 L 178.039062 193.828125 L 196.882812 193.828125 Z M 196.882812 235.660156" style="stroke:none;fill-rule:evenodd;fill:#bb8c4d;fill-opacity:1;"></path><path d="M 238.640625 193.894531 L 211.15625 221.378906 L 211.15625 166.0625 L 196.875 151.890625 L 196.875 180.25 L 178.035156 180.25 L 178.035156 139.402344 L 181.085938 136.347656 C 184.605469 132.828125 190.367188 132.828125 193.886719 136.347656 L 238.632812 181.09375 C 242.164062 184.613281 242.164062 190.375 238.640625 193.894531 Z M 238.640625 193.894531" style="stroke:none;fill-rule:evenodd;fill:#323232;fill-opacity:1;"></path></g></svg></svg></g></g></svg></g><g id="dark-icon"><svg xmlns="http://www.w3.org/2000/svg" version="1.1" xmlns:xlink="http://www.w3.org/1999/xlink" width="1000" height="1000"><g><g transform="matrix(8.771929824561404,0,0,8.771929824561404,-5.684341886080802e-14,0.000011999999969702912)"><svg xmlns="http://www.w3.org/2000/svg" version="1.1" xmlns:xlink="http://www.w3.org/1999/xlink" width="114" height="113.999997264"><svg version="1.2" preserveAspectRatio="xMidYMid meet" viewBox="131.00025 129.500246891994 114 113.999997264" zoomAndPan="magnify" xmlns:xlink="http://www.w3.org/1999/xlink" xmlns="http://www.w3.org/2000/svg" style="max-height: 500px" width="114" height="113.999997264"><g id="8711b6fc18"><path d="M 196.882812 235.660156 L 193.894531 238.644531 C 190.375 242.164062 184.613281 242.164062 181.09375 238.644531 L 136.347656 193.898438 C 132.828125 190.382812 132.828125 184.621094 136.347656 181.101562 L 163.761719 153.6875 L 163.761719 208.015625 L 178.039062 222.1875 L 178.039062 193.828125 L 196.882812 193.828125 Z M 196.882812 235.660156" style="stroke:none;fill-rule:evenodd;fill:#bb8c4d;fill-opacity:1;"></path><path d="M 238.640625 193.894531 L 211.15625 221.378906 L 211.15625 166.0625 L 196.875 151.890625 L 196.875 180.25 L 178.035156 180.25 L 178.035156 139.402344 L 181.085938 136.347656 C 184.605469 132.828125 190.367188 132.828125 193.886719 136.347656 L 238.632812 181.09375 C 242.164062 184.613281 242.164062 190.375 238.640625 193.894531 Z M 238.640625 193.894531" style="stroke:none;fill-rule:evenodd;fill:#ffffff;fill-opacity:1;"></path></g></svg></svg></g></g></svg></g></svg>