<svg version="1.2" preserveAspectRatio="xMidYMid meet" viewBox="90.99974999999999 114.24974725800601 202.5 131.999996832" zoomAndPan="magnify" xmlns:xlink="http://www.w3.org/1999/xlink" xmlns="http://www.w3.org/2000/svg" style="max-height: 500px" width="202.5" height="131.999996832"><defs><clipPath id="af78383ef6"><path d="M 178.945312 208.847656 L 198.910156 208.847656 L 198.910156 244.050781 L 178.945312 244.050781 Z M 178.945312 208.847656"/></clipPath><clipPath id="4292e592e3"><path d="M 164.675781 201.734375 L 213.425781 201.734375 L 213.425781 251.234375 L 164.675781 251.234375 Z M 164.675781 201.734375"/></clipPath><clipPath id="c445168e72"><path d="M 154 195 L 168 195 L 168 204.214844 L 154 204.214844 Z M 154 195"/></clipPath><clipPath id="a7798cada0"><path d="M 124.789062 118 L 179 118 L 179 179 L 124.789062 179 Z M 124.789062 118"/></clipPath></defs><g id="7cea49fc6b"><g style="fill:#ffffff;fill-opacity:1;"><g transform="translate(92.433748, 240.025751)"><path d="M 1.828125 0 L 1.828125 -27.671875 L 8.375 -27.671875 L 8.375 -17.109375 L 19.765625 -17.109375 L 19.765625 -27.671875 L 26.296875 -27.671875 L 26.296875 0 L 19.765625 0 L 19.765625 -11.34375 L 8.375 -11.34375 L 8.375 0 Z M 1.828125 0" style="stroke:none"/></g></g><g style="fill:#ffffff;fill-opacity:1;"><g transform="translate(120.553872, 240.025751)"><path d="M 15.78125 0.5 C 12.96875 0.5 10.484375 -0.09375 8.328125 -1.28125 C 6.171875 -2.46875 4.484375 -4.140625 3.265625 -6.296875 C 2.054688 -8.453125 1.453125 -10.960938 1.453125 -13.828125 C 1.453125 -16.703125 2.054688 -19.21875 3.265625 -21.375 C 4.484375 -23.53125 6.171875 -25.203125 8.328125 -26.390625 C 10.484375 -27.578125 12.96875 -28.171875 15.78125 -28.171875 C 18.625 -28.171875 21.125 -27.578125 23.28125 -26.390625 C 25.4375 -25.203125 27.128906 -23.53125 28.359375 -21.375 C 29.585938 -19.21875 30.203125 -16.703125 30.203125 -13.828125 C 30.203125 -10.960938 29.585938 -8.453125 28.359375 -6.296875 C 27.128906 -4.140625 25.4375 -2.46875 23.28125 -1.28125 C 21.125 -0.09375 18.625 0.5 15.78125 0.5 Z M 15.78125 -4.890625 C 17.132812 -4.890625 18.375 -5.226562 19.5 -5.90625 C 20.632812 -6.582031 21.539062 -7.582031 22.21875 -8.90625 C 22.894531 -10.226562 23.234375 -11.867188 23.234375 -13.828125 C 23.234375 -15.796875 22.894531 -17.441406 22.21875 -18.765625 C 21.539062 -20.085938 20.632812 -21.085938 19.5 -21.765625 C 18.375 -22.441406 17.132812 -22.78125 15.78125 -22.78125 C 14.457031 -22.78125 13.226562 -22.441406 12.09375 -21.765625 C 10.957031 -21.085938 10.050781 -20.085938 9.375 -18.765625 C 8.707031 -17.441406 8.375 -15.796875 8.375 -13.828125 C 8.375 -11.867188 8.707031 -10.226562 9.375 -8.90625 C 10.050781 -7.582031 10.957031 -6.582031 12.09375 -5.90625 C 13.226562 -5.226562 14.457031 -4.890625 15.78125 -4.890625 Z M 15.78125 -4.890625" style="stroke:none"/></g></g><g style="fill:#ffffff;fill-opacity:1;"><g transform="translate(152.194186, 240.025751)"><path d="M 1.828125 0 L 1.828125 -27.671875 L 12.46875 -27.671875 C 14.875 -27.671875 17.019531 -27.4375 18.90625 -26.96875 C 20.800781 -26.5 22.289062 -25.640625 23.375 -24.390625 C 24.46875 -23.148438 25.015625 -21.382812 25.015625 -19.09375 C 25.015625 -18.039062 24.820312 -17 24.4375 -15.96875 C 24.050781 -14.9375 23.378906 -13.988281 22.421875 -13.125 C 21.472656 -12.269531 20.113281 -11.609375 18.34375 -11.140625 L 26.390625 0 L 18.8125 0 L 11.3125 -10.4375 L 8.375 -10.4375 L 8.375 0 Z M 8.375 -15.90625 L 12.671875 -15.90625 C 14.222656 -15.90625 15.515625 -16.101562 16.546875 -16.5 C 17.578125 -16.90625 18.09375 -17.742188 18.09375 -19.015625 C 18.09375 -20.304688 17.578125 -21.148438 16.546875 -21.546875 C 15.515625 -21.953125 14.222656 -22.15625 12.671875 -22.15625 L 8.375 -22.15625 Z M 8.375 -15.90625" style="stroke:none"/></g></g><g style="fill:#ffffff;fill-opacity:1;"><g transform="translate(179.27895, 240.025751)"><path d="M 2.359375 0 L 2.359375 -5.140625 L 6.25 -5.140625 L 6.25 -22.53125 L 2.359375 -22.53125 L 2.359375 -27.671875 L 16.609375 -27.671875 L 16.609375 -22.53125 L 12.796875 -22.53125 L 12.796875 -5.140625 L 16.609375 -5.140625 L 16.609375 0 Z M 2.359375 0" style="stroke:none"/></g></g><g style="fill:#ffffff;fill-opacity:1;"><g transform="translate(198.24657, 240.025751)"><path d="M 1.328125 0 L 1.328125 -5.015625 L 15.28125 -21.90625 L 1.953125 -21.90625 L 1.953125 -27.671875 L 23.78125 -27.671875 L 23.78125 -22.65625 L 9.9375 -5.75 L 24.390625 -5.75 L 24.390625 0 Z M 1.328125 0" style="stroke:none"/></g></g><g style="fill:#ffffff;fill-opacity:1;"><g transform="translate(223.964681, 240.025751)"><path d="M 15.78125 0.5 C 12.96875 0.5 10.484375 -0.09375 8.328125 -1.28125 C 6.171875 -2.46875 4.484375 -4.140625 3.265625 -6.296875 C 2.054688 -8.453125 1.453125 -10.960938 1.453125 -13.828125 C 1.453125 -16.703125 2.054688 -19.21875 3.265625 -21.375 C 4.484375 -23.53125 6.171875 -25.203125 8.328125 -26.390625 C 10.484375 -27.578125 12.96875 -28.171875 15.78125 -28.171875 C 18.625 -28.171875 21.125 -27.578125 23.28125 -26.390625 C 25.4375 -25.203125 27.128906 -23.53125 28.359375 -21.375 C 29.585938 -19.21875 30.203125 -16.703125 30.203125 -13.828125 C 30.203125 -10.960938 29.585938 -8.453125 28.359375 -6.296875 C 27.128906 -4.140625 25.4375 -2.46875 23.28125 -1.28125 C 21.125 -0.09375 18.625 0.5 15.78125 0.5 Z M 15.78125 -4.890625 C 17.132812 -4.890625 18.375 -5.226562 19.5 -5.90625 C 20.632812 -6.582031 21.539062 -7.582031 22.21875 -8.90625 C 22.894531 -10.226562 23.234375 -11.867188 23.234375 -13.828125 C 23.234375 -15.796875 22.894531 -17.441406 22.21875 -18.765625 C 21.539062 -20.085938 20.632812 -21.085938 19.5 -21.765625 C 18.375 -22.441406 17.132812 -22.78125 15.78125 -22.78125 C 14.457031 -22.78125 13.226562 -22.441406 12.09375 -21.765625 C 10.957031 -21.085938 10.050781 -20.085938 9.375 -18.765625 C 8.707031 -17.441406 8.375 -15.796875 8.375 -13.828125 C 8.375 -11.867188 8.707031 -10.226562 9.375 -8.90625 C 10.050781 -7.582031 10.957031 -6.582031 12.09375 -5.90625 C 13.226562 -5.226562 14.457031 -4.890625 15.78125 -4.890625 Z M 15.78125 -4.890625" style="stroke:none"/></g></g><g style="fill:#ffffff;fill-opacity:1;"><g transform="translate(255.604995, 240.025751)"><path d="M 1.828125 0 L 1.828125 -27.671875 L 10.140625 -27.671875 L 20.828125 -7.953125 L 20.828125 -27.671875 L 27.171875 -27.671875 L 27.171875 0 L 18.8125 0 L 8.125 -19.71875 L 8.125 0 Z M 1.828125 0" style="stroke:none"/></g></g><g clip-path="url(#af78383ef6)" clip-rule="nonzero"><path d="M 178.945312 208.847656 L 198.910156 208.847656 L 198.910156 244.019531 L 178.945312 244.019531 Z M 178.945312 208.847656" style="stroke:none;fill-rule:nonzero;fill:#bb8c4d;fill-opacity:1;"/></g><path transform="matrix(0.75,0,0,0.75,69.411022,227.069985)" d="M -0.00115372 0.500437 L 309.566575 0.500437" style="fill:none;stroke-width:1;stroke-linecap:butt;stroke-linejoin:miter;stroke:#ffffff;stroke-opacity:1;stroke-miterlimit:4;"/><g clip-path="url(#4292e592e3)" clip-rule="nonzero"><path d="M 213.175781 224.875 L 198 225.242188 C 193.226562 224.167969 191.097656 221.980469 190.054688 217.125 L 190.476562 201.738281 L 187.332031 201.738281 L 187.710938 217.40625 C 186.648438 222.0625 184.511719 224.1875 179.832031 225.242188 L 164.6875 224.875 L 164.6875 226.429688 L 164.679688 226.429688 L 164.6875 226.429688 L 164.6875 228.019531 L 179.765625 227.605469 C 184.558594 228.671875 186.703125 230.835938 187.757812 235.65625 L 187.332031 251.15625 L 190.476562 251.15625 L 190.097656 235.539062 C 191.160156 230.800781 193.3125 228.664062 198.066406 227.605469 L 213.175781 228.019531 Z M 213.175781 224.875" style="stroke:none;fill-rule:nonzero;fill:#ffffff;fill-opacity:1;"/></g><path d="M 186.496094 168.339844 C 186.515625 168.328125 186.539062 168.316406 186.5625 168.304688 C 186.574219 168.300781 186.585938 168.292969 186.601562 168.289062 C 186.628906 168.277344 186.65625 168.265625 186.683594 168.253906 C 186.710938 168.242188 186.734375 168.234375 186.761719 168.226562 C 186.792969 168.214844 186.828125 168.203125 186.863281 168.195312 C 186.898438 168.183594 186.933594 168.175781 186.972656 168.164062 C 186.992188 168.160156 187.011719 168.15625 187.027344 168.152344 C 187.082031 168.140625 187.136719 168.132812 187.1875 168.128906 C 187.203125 168.125 187.214844 168.125 187.230469 168.125 C 187.289062 168.121094 187.347656 168.117188 187.410156 168.117188 C 187.46875 168.117188 187.527344 168.121094 187.585938 168.125 C 187.601562 168.125 187.613281 168.125 187.628906 168.128906 C 187.683594 168.132812 187.734375 168.140625 187.789062 168.152344 C 187.804688 168.15625 187.824219 168.160156 187.84375 168.164062 C 187.882812 168.175781 187.917969 168.183594 187.953125 168.195312 C 187.988281 168.203125 188.023438 168.214844 188.054688 168.226562 C 188.082031 168.234375 188.105469 168.242188 188.132812 168.253906 C 188.160156 168.265625 188.1875 168.277344 188.214844 168.289062 C 188.234375 168.296875 188.25 168.304688 188.265625 168.3125 C 188.285156 168.320312 188.304688 168.332031 188.320312 168.339844 C 188.960938 168.671875 189.398438 169.335938 189.398438 170.105469 C 189.398438 170.574219 189.234375 171.003906 188.960938 171.34375 C 188.945312 171.363281 188.925781 171.386719 188.910156 171.40625 C 188.890625 171.425781 188.871094 171.445312 188.855469 171.464844 C 188.828125 171.492188 188.800781 171.519531 188.773438 171.546875 C 188.753906 171.566406 188.730469 171.585938 188.710938 171.601562 C 188.691406 171.621094 188.671875 171.636719 188.652344 171.65625 C 188.617188 171.679688 188.582031 171.707031 188.546875 171.730469 C 188.53125 171.742188 188.511719 171.757812 188.492188 171.769531 C 188.453125 171.792969 188.414062 171.816406 188.375 171.839844 C 188.359375 171.847656 188.339844 171.859375 188.324219 171.867188 C 188.285156 171.886719 188.246094 171.90625 188.203125 171.925781 C 188.1875 171.933594 188.175781 171.9375 188.160156 171.941406 C 188.117188 171.960938 188.070312 171.980469 188.023438 171.992188 C 188.011719 171.996094 188 172 187.988281 172.007812 C 187.933594 172.019531 187.882812 172.035156 187.828125 172.046875 C 187.816406 172.050781 187.804688 172.050781 187.789062 172.054688 C 187.734375 172.066406 187.679688 172.074219 187.621094 172.078125 C 187.613281 172.082031 187.601562 172.082031 187.59375 172.082031 C 187.53125 172.085938 187.46875 172.09375 187.410156 172.09375 C 187.347656 172.09375 187.285156 172.085938 187.222656 172.082031 C 187.214844 172.082031 187.203125 172.082031 187.195312 172.078125 C 187.136719 172.074219 187.082031 172.066406 187.027344 172.054688 C 187.011719 172.050781 187 172.050781 186.988281 172.046875 C 186.933594 172.035156 186.882812 172.019531 186.828125 172.007812 C 186.816406 172 186.804688 171.996094 186.792969 171.992188 C 186.746094 171.980469 186.699219 171.960938 186.65625 171.941406 C 186.640625 171.9375 186.628906 171.933594 186.613281 171.925781 C 186.574219 171.90625 186.53125 171.886719 186.492188 171.867188 C 186.476562 171.859375 186.457031 171.847656 186.441406 171.839844 C 186.402344 171.816406 186.363281 171.792969 186.324219 171.769531 C 186.304688 171.757812 186.285156 171.742188 186.269531 171.730469 C 186.234375 171.707031 186.199219 171.679688 186.167969 171.65625 C 186.144531 171.636719 186.125 171.621094 186.105469 171.601562 C 186.085938 171.585938 186.066406 171.566406 186.042969 171.546875 C 186.015625 171.519531 185.988281 171.492188 185.960938 171.464844 C 185.945312 171.445312 185.925781 171.425781 185.910156 171.40625 C 185.890625 171.386719 185.871094 171.363281 185.855469 171.34375 C 185.585938 171.003906 185.421875 170.574219 185.421875 170.105469 C 185.421875 169.335938 185.855469 168.671875 186.496094 168.339844 Z M 210.332031 191.121094 C 210.332031 194.960938 207.21875 198.078125 203.375 198.078125 C 199.53125 198.078125 196.417969 194.960938 196.417969 191.121094 C 196.417969 187.277344 199.53125 184.164062 203.375 184.164062 C 207.21875 184.164062 210.332031 187.277344 210.332031 191.121094 Z M 171.441406 198.078125 C 167.601562 198.078125 164.484375 194.960938 164.484375 191.121094 C 164.484375 187.277344 167.601562 184.164062 171.441406 184.164062 C 175.285156 184.164062 178.398438 187.277344 178.398438 191.121094 C 178.398438 194.960938 175.285156 198.078125 171.441406 198.078125 Z M 214.574219 128.515625 C 215.054688 127.628906 214.277344 127.175781 213.742188 128.035156 L 187.410156 166.445312 L 161.074219 128.035156 C 160.539062 127.175781 159.761719 127.628906 160.242188 128.515625 L 181.835938 170.632812 L 184.171875 172.921875 L 181.816406 175.136719 L 175.4375 181.125 C 174.203125 180.632812 172.855469 180.359375 171.441406 180.359375 C 165.5 180.359375 160.679688 185.179688 160.679688 191.121094 C 160.679688 197.066406 165.5 201.882812 171.441406 201.882812 C 177.386719 201.882812 182.203125 197.066406 182.203125 191.121094 C 182.203125 188.464844 181.238281 186.03125 179.644531 184.152344 L 185.0625 178.378906 L 187.410156 176.085938 L 189.753906 178.378906 L 195.171875 184.152344 C 193.578125 186.03125 192.613281 188.464844 192.613281 191.121094 C 192.613281 197.066406 197.429688 201.882812 203.375 201.882812 C 209.316406 201.882812 214.136719 197.066406 214.136719 191.121094 C 214.136719 185.179688 209.316406 180.359375 203.375 180.359375 C 201.960938 180.359375 200.613281 180.632812 199.378906 181.125 L 193 175.136719 L 190.644531 172.921875 L 192.980469 170.632812 L 214.574219 128.515625" style="stroke:none;fill-rule:nonzero;fill:#ffffff;fill-opacity:1;"/><g clip-path="url(#c445168e72)" clip-rule="nonzero"><path d="M 166.453125 199.4375 C 166.453125 199.4375 166.449219 199.4375 166.445312 199.441406 C 166.4375 199.449219 166.425781 199.464844 166.417969 199.472656 C 166.398438 199.492188 166.367188 199.523438 166.328125 199.5625 C 166.253906 199.636719 166.144531 199.738281 166.011719 199.863281 C 165.738281 200.113281 165.351562 200.453125 164.867188 200.839844 C 164.386719 201.222656 163.8125 201.652344 163.171875 202.074219 C 162.527344 202.496094 161.816406 202.914062 161.070312 203.265625 C 160.324219 203.617188 159.535156 203.898438 158.769531 204.054688 C 158.386719 204.132812 158.011719 204.183594 157.65625 204.195312 C 157.300781 204.210938 156.964844 204.191406 156.664062 204.148438 C 156.359375 204.105469 156.089844 204.03125 155.859375 203.957031 C 155.628906 203.878906 155.441406 203.792969 155.289062 203.714844 C 155.136719 203.636719 155.023438 203.570312 154.949219 203.519531 C 154.875 203.472656 154.832031 203.445312 154.832031 203.445312 C 154.832031 203.445312 154.878906 203.457031 154.964844 203.476562 C 155.050781 203.496094 155.179688 203.519531 155.34375 203.539062 C 155.503906 203.558594 155.699219 203.574219 155.921875 203.570312 C 156.144531 203.5625 156.390625 203.539062 156.652344 203.484375 C 157.171875 203.375 157.742188 203.144531 158.292969 202.800781 C 158.84375 202.453125 159.378906 202.007812 159.871094 201.507812 C 160.359375 201.011719 160.808594 200.46875 161.203125 199.9375 C 161.59375 199.40625 161.933594 198.886719 162.203125 198.4375 C 162.476562 197.984375 162.683594 197.601562 162.820312 197.335938 C 162.890625 197.203125 162.9375 197.101562 162.96875 197.035156 C 162.984375 197 162.996094 196.976562 163 196.960938 C 163.003906 196.953125 163.003906 196.953125 163.003906 196.949219 C 163.003906 196.949219 163.007812 196.945312 163.007812 196.945312 L 163.042969 196.878906 C 163.621094 195.84375 164.929688 195.472656 165.96875 196.054688 C 167.003906 196.632812 167.375 197.941406 166.792969 198.980469 C 166.699219 199.148438 166.578125 199.304688 166.453125 199.4375" style="stroke:none;fill-rule:nonzero;fill:#ffffff;fill-opacity:1;"/></g><g clip-path="url(#a7798cada0)" clip-rule="nonzero"><path d="M 134.332031 118.625 L 131.242188 120.988281 L 124.980469 127.078125 C 124.8125 127.242188 124.792969 127.507812 124.9375 127.695312 L 124.957031 127.71875 C 125.113281 127.925781 125.40625 127.964844 125.609375 127.808594 L 132.457031 122.574219 L 132.738281 122.949219 L 125.894531 128.179688 C 125.6875 128.335938 125.648438 128.628906 125.808594 128.835938 C 125.964844 129.039062 126.257812 129.078125 126.460938 128.921875 L 133.304688 123.6875 L 133.589844 124.0625 L 126.746094 129.292969 C 126.539062 129.449219 126.5 129.742188 126.660156 129.949219 C 126.816406 130.152344 127.109375 130.191406 127.3125 130.035156 L 134.15625 124.804688 L 134.441406 125.175781 L 127.597656 130.40625 C 127.390625 130.5625 127.351562 130.855469 127.511719 131.0625 C 127.667969 131.265625 127.960938 131.304688 128.164062 131.148438 L 135.007812 125.917969 L 135.292969 126.289062 L 128.449219 131.519531 C 128.242188 131.675781 128.203125 131.96875 128.359375 132.175781 C 128.519531 132.382812 128.8125 132.421875 129.015625 132.265625 L 135.859375 127.03125 L 136.144531 127.402344 L 129.300781 132.632812 C 129.09375 132.789062 129.054688 133.085938 129.210938 133.289062 C 129.367188 133.496094 129.664062 133.535156 129.867188 133.375 L 136.710938 128.144531 L 136.996094 128.515625 L 130.152344 133.746094 C 129.945312 133.902344 129.90625 134.199219 130.0625 134.402344 C 130.21875 134.609375 130.511719 134.644531 130.71875 134.488281 L 137.5625 129.257812 L 137.847656 129.628906 L 131.003906 134.863281 C 130.796875 135.019531 130.757812 135.3125 130.914062 135.515625 C 131.070312 135.722656 131.363281 135.761719 131.570312 135.605469 L 138.414062 130.371094 L 138.699219 130.742188 L 131.855469 135.976562 C 131.648438 136.132812 131.609375 136.425781 131.765625 136.628906 C 131.921875 136.835938 132.214844 136.875 132.421875 136.71875 L 139.265625 131.484375 L 139.550781 131.855469 L 132.707031 137.089844 C 132.5 137.246094 132.460938 137.539062 132.617188 137.742188 C 132.773438 137.949219 133.066406 137.988281 133.273438 137.832031 L 140.117188 132.597656 L 140.402344 132.96875 L 133.554688 138.203125 C 133.351562 138.359375 133.3125 138.652344 133.46875 138.855469 L 133.46875 138.859375 C 133.625 139.0625 133.917969 139.101562 134.125 138.945312 L 140.96875 133.710938 L 141.253906 134.085938 L 134.40625 139.316406 C 134.203125 139.472656 134.164062 139.765625 134.320312 139.972656 C 134.476562 140.175781 134.769531 140.214844 134.976562 140.058594 L 141.820312 134.828125 L 142.101562 135.199219 L 135.257812 140.429688 C 135.054688 140.585938 135.015625 140.878906 135.171875 141.085938 C 135.328125 141.289062 135.621094 141.328125 135.828125 141.171875 L 142.671875 135.941406 L 142.953125 136.3125 L 136.109375 141.542969 C 135.90625 141.699219 135.867188 141.992188 136.023438 142.199219 C 136.179688 142.402344 136.472656 142.441406 136.679688 142.285156 L 143.523438 137.054688 L 143.804688 137.425781 L 136.960938 142.65625 C 136.757812 142.8125 136.71875 143.109375 136.875 143.3125 C 137.03125 143.519531 137.324219 143.558594 137.53125 143.398438 L 144.375 138.167969 L 144.65625 138.539062 L 137.8125 143.769531 C 137.609375 143.925781 137.570312 144.222656 137.726562 144.425781 C 137.882812 144.628906 138.175781 144.667969 138.378906 144.511719 L 145.226562 139.28125 L 145.507812 139.652344 L 138.664062 144.882812 C 138.460938 145.042969 138.421875 145.335938 138.578125 145.539062 C 138.734375 145.746094 139.027344 145.785156 139.230469 145.625 L 146.078125 140.394531 L 146.359375 140.765625 L 139.515625 146 C 139.3125 146.15625 139.269531 146.449219 139.429688 146.652344 C 139.585938 146.859375 139.878906 146.898438 140.082031 146.742188 L 146.925781 141.507812 L 147.210938 141.878906 L 140.367188 147.113281 C 140.160156 147.269531 140.121094 147.5625 140.28125 147.765625 C 140.4375 147.972656 140.730469 148.011719 140.933594 147.855469 L 147.777344 142.621094 L 148.0625 142.992188 L 141.21875 148.226562 C 141.011719 148.382812 140.972656 148.675781 141.132812 148.878906 C 141.289062 149.085938 141.582031 149.125 141.785156 148.96875 L 148.628906 143.734375 L 148.914062 144.105469 L 142.070312 149.339844 C 141.863281 149.496094 141.824219 149.789062 141.980469 149.996094 C 142.140625 150.199219 142.433594 150.238281 142.636719 150.082031 L 149.480469 144.847656 L 149.765625 145.222656 L 142.921875 150.453125 C 142.714844 150.609375 142.675781 150.902344 142.832031 151.109375 C 142.992188 151.3125 143.285156 151.351562 143.488281 151.195312 L 150.332031 145.964844 L 150.617188 146.335938 L 143.773438 151.566406 C 143.566406 151.722656 143.527344 152.015625 143.683594 152.222656 C 143.839844 152.425781 144.132812 152.464844 144.339844 152.308594 L 151.183594 147.078125 L 151.46875 147.449219 L 144.625 152.679688 C 144.417969 152.835938 144.378906 153.128906 144.535156 153.335938 C 144.691406 153.539062 144.984375 153.578125 145.191406 153.421875 L 152.035156 148.191406 L 152.320312 148.5625 L 145.476562 153.792969 C 145.269531 153.949219 145.230469 154.246094 145.386719 154.449219 C 145.542969 154.652344 145.835938 154.695312 146.042969 154.535156 L 152.886719 149.304688 L 153.171875 149.675781 L 146.328125 154.90625 C 146.121094 155.0625 146.082031 155.359375 146.238281 155.5625 C 146.394531 155.765625 146.6875 155.804688 146.894531 155.648438 L 153.738281 150.417969 L 154.023438 150.789062 L 147.175781 156.023438 C 146.972656 156.179688 146.933594 156.46875 147.089844 156.675781 C 147.246094 156.882812 147.539062 156.921875 147.746094 156.765625 L 154.589844 151.53125 L 154.875 151.902344 L 148.027344 157.136719 C 147.824219 157.292969 147.785156 157.585938 147.941406 157.789062 C 148.097656 157.996094 148.390625 158.035156 148.597656 157.878906 L 155.441406 152.644531 L 155.726562 153.015625 L 148.878906 158.25 C 148.675781 158.40625 148.636719 158.699219 148.792969 158.902344 C 148.949219 159.109375 149.242188 159.148438 149.449219 158.992188 L 156.292969 153.757812 L 156.574219 154.128906 L 149.730469 159.363281 C 149.527344 159.519531 149.488281 159.8125 149.644531 160.015625 C 149.800781 160.222656 150.09375 160.261719 150.300781 160.105469 L 157.144531 154.871094 L 157.425781 155.242188 L 150.582031 160.476562 C 150.378906 160.632812 150.339844 160.925781 150.496094 161.132812 C 150.652344 161.335938 150.945312 161.375 151.148438 161.21875 L 157.996094 155.984375 L 158.277344 156.359375 L 151.433594 161.589844 C 151.230469 161.746094 151.191406 162.039062 151.347656 162.246094 C 151.503906 162.449219 151.796875 162.488281 152 162.332031 L 158.847656 157.101562 L 159.128906 157.472656 L 152.285156 162.703125 C 152.082031 162.859375 152.042969 163.152344 152.199219 163.359375 C 152.355469 163.5625 152.648438 163.601562 152.851562 163.445312 L 159.699219 158.214844 L 159.980469 158.585938 L 153.136719 163.816406 C 152.933594 163.972656 152.894531 164.265625 153.050781 164.472656 C 153.207031 164.675781 153.5 164.714844 153.703125 164.558594 L 160.550781 159.328125 L 160.832031 159.699219 L 153.988281 164.929688 C 153.78125 165.085938 153.742188 165.382812 153.902344 165.585938 L 153.964844 165.667969 C 154.109375 165.859375 154.375 165.90625 154.578125 165.78125 L 163.125 160.5625 L 177.3125 178.171875 L 178.863281 176.714844 L 137.058594 119.023438 C 136.421875 118.148438 135.191406 117.96875 134.332031 118.625" style="stroke:none;fill-rule:nonzero;fill:#ffffff;fill-opacity:1;"/></g><path d="M 249.835938 127.078125 L 243.578125 120.988281 L 240.488281 118.625 C 239.625 117.96875 238.394531 118.148438 237.761719 119.023438 L 195.953125 176.714844 L 197.503906 178.171875 L 211.691406 160.5625 L 220.238281 165.78125 C 220.441406 165.90625 220.707031 165.859375 220.851562 165.667969 L 220.914062 165.585938 C 221.074219 165.382812 221.035156 165.085938 220.828125 164.929688 L 213.984375 159.699219 L 214.269531 159.328125 L 221.113281 164.558594 C 221.316406 164.714844 221.609375 164.675781 221.765625 164.472656 C 221.921875 164.265625 221.882812 163.972656 221.679688 163.816406 L 214.835938 158.585938 L 215.121094 158.214844 L 221.964844 163.445312 C 222.167969 163.601562 222.460938 163.5625 222.617188 163.359375 C 222.773438 163.152344 222.734375 162.859375 222.53125 162.703125 L 215.6875 157.472656 L 215.96875 157.101562 L 222.816406 162.332031 C 223.019531 162.488281 223.3125 162.449219 223.46875 162.246094 C 223.628906 162.039062 223.589844 161.746094 223.382812 161.589844 L 216.539062 156.359375 L 216.820312 155.984375 L 223.667969 161.21875 C 223.871094 161.375 224.164062 161.335938 224.320312 161.132812 C 224.476562 160.925781 224.4375 160.632812 224.234375 160.476562 L 217.390625 155.242188 L 217.671875 154.871094 L 224.519531 160.105469 C 224.722656 160.261719 225.015625 160.222656 225.171875 160.015625 C 225.328125 159.8125 225.289062 159.519531 225.085938 159.363281 L 218.242188 154.128906 L 218.523438 153.757812 L 225.367188 158.992188 C 225.574219 159.148438 225.867188 159.109375 226.023438 158.902344 C 226.179688 158.699219 226.140625 158.40625 225.9375 158.25 L 219.09375 153.015625 L 219.375 152.644531 L 226.21875 157.878906 C 226.425781 158.035156 226.71875 157.996094 226.875 157.789062 C 227.03125 157.585938 226.992188 157.292969 226.789062 157.136719 L 219.941406 151.902344 L 220.226562 151.53125 L 227.070312 156.765625 C 227.277344 156.921875 227.570312 156.882812 227.726562 156.675781 C 227.882812 156.46875 227.84375 156.179688 227.636719 156.023438 L 220.792969 150.789062 L 221.078125 150.417969 L 227.921875 155.648438 C 228.128906 155.804688 228.421875 155.765625 228.578125 155.5625 C 228.734375 155.359375 228.695312 155.0625 228.492188 154.90625 L 221.648438 149.675781 L 221.929688 149.304688 L 228.773438 154.535156 C 228.980469 154.695312 229.273438 154.652344 229.429688 154.449219 C 229.585938 154.246094 229.546875 153.949219 229.34375 153.792969 L 222.496094 148.5625 L 222.78125 148.191406 L 229.625 153.421875 C 229.832031 153.578125 230.125 153.539062 230.28125 153.335938 C 230.4375 153.128906 230.398438 152.835938 230.195312 152.679688 L 223.347656 147.449219 L 223.632812 147.078125 L 230.476562 152.308594 C 230.683594 152.464844 230.976562 152.425781 231.132812 152.222656 C 231.289062 152.015625 231.25 151.722656 231.042969 151.566406 L 224.199219 146.335938 L 224.484375 145.964844 L 231.328125 151.195312 C 231.53125 151.351562 231.828125 151.3125 231.984375 151.109375 C 232.140625 150.902344 232.101562 150.609375 231.894531 150.453125 L 225.050781 145.222656 L 225.335938 144.847656 L 232.179688 150.082031 C 232.382812 150.238281 232.675781 150.199219 232.835938 149.996094 C 232.992188 149.789062 232.953125 149.496094 232.746094 149.339844 L 225.902344 144.105469 L 226.1875 143.734375 L 233.03125 148.96875 C 233.238281 149.125 233.527344 149.085938 233.683594 148.878906 C 233.84375 148.675781 233.804688 148.382812 233.597656 148.226562 L 226.753906 142.992188 L 227.039062 142.621094 L 233.882812 147.855469 C 234.085938 148.011719 234.378906 147.972656 234.535156 147.765625 C 234.695312 147.5625 234.65625 147.269531 234.449219 147.113281 L 227.605469 141.878906 L 227.890625 141.507812 L 234.734375 146.742188 C 234.9375 146.898438 235.230469 146.859375 235.390625 146.652344 C 235.546875 146.449219 235.507812 146.15625 235.300781 146 L 228.457031 140.765625 L 228.742188 140.394531 L 235.585938 145.625 C 235.789062 145.785156 236.082031 145.746094 236.238281 145.539062 C 236.398438 145.335938 236.359375 145.042969 236.152344 144.882812 L 229.308594 139.652344 L 229.589844 139.28125 L 236.4375 144.511719 C 236.640625 144.667969 236.933594 144.628906 237.089844 144.425781 C 237.246094 144.222656 237.207031 143.925781 237.003906 143.769531 L 230.160156 138.539062 L 230.441406 138.167969 L 237.285156 143.398438 C 237.492188 143.558594 237.785156 143.519531 237.941406 143.3125 C 238.097656 143.109375 238.058594 142.8125 237.855469 142.65625 L 231.011719 137.425781 L 231.296875 137.054688 L 238.136719 142.285156 C 238.34375 142.441406 238.636719 142.402344 238.792969 142.199219 C 238.949219 141.992188 238.910156 141.699219 238.707031 141.542969 L 231.863281 136.3125 L 232.144531 135.941406 L 238.992188 141.171875 C 239.195312 141.328125 239.488281 141.289062 239.644531 141.085938 C 239.800781 140.878906 239.761719 140.585938 239.558594 140.429688 L 232.714844 135.199219 L 232.996094 134.828125 L 239.839844 140.058594 C 240.046875 140.214844 240.339844 140.175781 240.496094 139.972656 C 240.652344 139.765625 240.613281 139.472656 240.410156 139.316406 L 233.566406 134.085938 L 233.847656 133.710938 L 240.691406 138.945312 C 240.898438 139.101562 241.191406 139.0625 241.347656 138.859375 L 241.347656 138.855469 C 241.503906 138.652344 241.464844 138.359375 241.261719 138.203125 L 234.414062 132.96875 L 234.699219 132.597656 L 241.542969 137.832031 C 241.75 137.988281 242.042969 137.949219 242.199219 137.742188 C 242.355469 137.539062 242.316406 137.246094 242.113281 137.089844 L 235.265625 131.855469 L 235.550781 131.484375 L 242.394531 136.71875 C 242.601562 136.875 242.894531 136.835938 243.050781 136.628906 C 243.207031 136.425781 243.167969 136.132812 242.964844 135.976562 L 236.117188 130.742188 L 236.402344 130.371094 L 243.246094 135.605469 C 243.453125 135.761719 243.746094 135.722656 243.902344 135.515625 C 244.058594 135.3125 244.019531 135.019531 243.8125 134.863281 L 236.96875 129.628906 L 237.253906 129.257812 L 244.097656 134.488281 C 244.304688 134.644531 244.597656 134.609375 244.753906 134.402344 C 244.910156 134.199219 244.871094 133.902344 244.664062 133.746094 L 237.820312 128.515625 L 238.105469 128.144531 L 244.949219 133.375 C 245.15625 133.535156 245.449219 133.496094 245.605469 133.289062 C 245.761719 133.085938 245.722656 132.789062 245.515625 132.632812 L 238.671875 127.402344 L 238.957031 127.03125 L 245.800781 132.265625 C 246.007812 132.421875 246.300781 132.382812 246.457031 132.175781 C 246.613281 131.96875 246.574219 131.675781 246.367188 131.519531 L 239.523438 126.289062 L 239.808594 125.917969 L 246.652344 131.148438 C 246.855469 131.304688 247.152344 131.265625 247.308594 131.0625 C 247.464844 130.855469 247.425781 130.5625 247.21875 130.40625 L 240.375 125.175781 L 240.660156 124.804688 L 247.503906 130.035156 C 247.707031 130.191406 248.003906 130.152344 248.160156 129.949219 C 248.316406 129.742188 248.277344 129.449219 248.070312 129.292969 L 241.226562 124.0625 L 241.511719 123.6875 L 248.355469 128.921875 C 248.558594 129.078125 248.851562 129.039062 249.007812 128.835938 C 249.167969 128.628906 249.128906 128.335938 248.921875 128.179688 L 242.078125 122.949219 L 242.363281 122.574219 L 249.207031 127.808594 C 249.410156 127.964844 249.703125 127.925781 249.859375 127.71875 L 249.878906 127.695312 C 250.023438 127.507812 250.003906 127.242188 249.835938 127.078125" style="stroke:none;fill-rule:nonzero;fill:#ffffff;fill-opacity:1;"/><path d="M 193.28125 183.40625 L 192.050781 182.097656 L 187.410156 188.503906 L 186.570312 189.660156 L 184.175781 192.964844 C 183.34375 194.109375 184.160156 194.730469 185.046875 193.628906 L 187.410156 190.699219 L 188.246094 189.660156 L 193.28125 183.40625" style="stroke:none;fill-rule:nonzero;fill:#ffffff;fill-opacity:1;"/><path d="M 188.773438 190.386719 L 187.96875 191.390625 L 189.769531 193.628906 C 190.660156 194.730469 191.472656 194.109375 190.640625 192.964844 L 188.773438 190.386719" style="stroke:none;fill-rule:nonzero;fill:#ffffff;fill-opacity:1;"/><path d="M 186.871094 187.761719 L 182.765625 182.097656 L 181.535156 183.40625 L 186.003906 188.957031 L 186.871094 187.761719" style="stroke:none;fill-rule:nonzero;fill:#ffffff;fill-opacity:1;"/></g></svg>